<svg viewBox="0 0 48 48" xml:space="preserve" xmlns="http://www.w3.org/2000/svg" enable-background="new 0 0 48 48"><path d="M19 38c-2.2 0-4 1.8-4 4s1.8 4 4 4 4-1.8 4-4-1.8-4-4-4zm0 6c-1.1 0-2-.9-2-2s.9-2 2-2 2 .9 2 2-.9 2-2 2zM37 38c-2.2 0-4 1.8-4 4s1.8 4 4 4 4-1.8 4-4-1.8-4-4-4zm0 6c-1.1 0-2-.9-2-2s.9-2 2-2 2 .9 2 2-.9 2-2 2zM43.6 9.4c-.7-.9-1.9-1.4-3.1-1.4H12.8l-.4-2.6c-.3-1.9-2-3.4-4-3.4H2v2h6.4c1 0 1.9.7 2 1.7l4.2 27.1c.4 1.9 2.1 3.3 4 3.3H40v-2H18.6c-1 0-1.8-.7-2-1.7l-.4-2.4h22.2c1.9 0 3.6-1.4 4-3.5l2.1-14c.2-1.1-.1-2.2-.9-3.1zm-1.1 2.9-2.1 14c-.2 1.1-1 1.8-2 1.8H15.9l-2.8-18h27.4c.6 0 1.2.3 1.6.7.4.3.5.9.4 1.5z" fill="#ffffff" class="fill-000000"></path></svg>