<?xml version="1.0" encoding="utf-8"?>
<!-- Generator: Adobe Illustrator 24.0.0, SVG Export Plug-In . SVG Version: 6.00 Build 0)  -->
<svg version="1.1" id="Layer_1" xmlns="http://www.w3.org/2000/svg" xmlns:xlink="http://www.w3.org/1999/xlink" x="0px" y="0px"
	 viewBox="0 0 800 600" style="enable-background:new 0 0 800 600;" xml:space="preserve">
<style type="text/css">
	.st0{fill:#DD052B;}
</style>
<g>
	<path class="st0" d="M484.5,225.7c-10.3,0-20.7,4.4-29.6,11.8c-52.5,44.3-52.5,44.3-52.5,44.3c-8.1,6.7-18.5,11.8-31,11.8
		c-17,0-17,0-17,0c43.6-36.2,43.6-36.2,43.6-36.2c-12.6-20-12.6-20-12.6-20c-4.4-8.1-13.3-11.8-22.9-11.8c-115.3,0-115.3,0-115.3,0
		c-10.4,0-20.7,4.4-29.6,11.8c-59.9,50.3-59.9,50.3-59.9,50.3c-8.1,6.6-17.7,11.8-30.3,11.8c-18.5,0-18.5,0-18.5,0
		c88-73.9,88-73.9,88-73.9c-90.2,0-90.2,0-90.2,0C64.7,373.6,64.7,373.6,64.7,373.6c71,0,71,0,71,0c19.2-65.8,19.2-65.8,19.2-65.8
		c33.3,54,33.3,54,33.3,54c5.2,8.9,14,11.8,22.9,11.8c65,0,65,0,65,0c-45.8-73.9-45.8-73.9-45.8-73.9c72.4-60.6,72.4-60.6,72.4-60.6
		c56.2,90.2,56.2,90.2,56.2,90.2c-12.6,44.3-12.6,44.3-12.6,44.3c73.2,0,73.2,0,73.2,0c12.6-44.3,12.6-44.3,12.6-44.3
		c114.6-96.1,114.6-96.1,114.6-96.1c-39.9,140.4-39.9,140.4-39.9,140.4c18.5,0,18.5,0,18.5,0c11.8,0,22.2-5.2,30.3-11.8
		c59.1-49.5,59.1-49.5,59.1-49.5c10.4-8.9,20-12.6,30.3-12.6c10.4,0,18.5,0,18.5,0c-88,73.9-88,73.9-88,73.9c70.2,0,70.2,0,70.2,0
		c34,0,64.3-13.3,71-37.7c6.7-22.2-12.6-34.7-33.3-36.2c-0.7,0-0.7,0,0,0c20.7-2.2,44.3-17,50.3-37c6.7-21.4-7.4-37-31-37
		c-11.1,0-21.4,4.4-31,12.6C619,281.9,619,281.9,619,281.9c-6.7,5.9-17,11.8-30.3,11.8c-17.7,0-17.7,0-17.7,0
		c80.6-68,80.6-68,80.6-68C484.5,225.7,484.5,225.7,484.5,225.7L484.5,225.7z"/>
</g>
</svg>
