<?xml version="1.0" encoding="utf-8"?>
<!-- Generator: Adobe Illustrator 24.2.0, SVG Export Plug-In . SVG Version: 6.00 Build 0)  -->
<svg version="1.1" id="Layer_1" xmlns="http://www.w3.org/2000/svg" xmlns:xlink="http://www.w3.org/1999/xlink" x="0px" y="0px"
	 viewBox="0 0 512 512" style="enable-background:new 0 0 512 512;" xml:space="preserve">
<style type="text/css">
	.st0{fill:#E34444;}
</style>
<g>
	<path class="st0" d="M31.18,146.12c-0.16,0.27-0.21,38.05-0.16,84.02l0.11,83.54l20.73,0.21c57.13,0.69,88.17,0.8,252.07,1.17
		L481,315.39V145.7H256.25C132.58,145.7,31.34,145.91,31.18,146.12L31.18,146.12z M451.24,151.01c0.64,0.64,1.91,2.34,2.98,3.88
		c1.01,1.54,2.6,3.77,3.56,4.94c0.9,1.22,2.76,3.83,4.09,5.79c1.33,1.91,3.88,5.58,5.74,8.08c1.86,2.55,3.3,5,3.19,5.53
		c-0.11,0.74-39.38,30.72-47.72,36.4c-1.01,0.69-2.92,2.13-4.25,3.14c-1.33,1.01-3.93,2.92-5.85,4.3c-5.31,3.83-9.51,7.28-9.25,7.71
		c0.11,0.21,3.03,2.5,6.43,5.05c3.45,2.6,6.54,5,6.8,5.31c0.48,0.53,10.74,8.5,16,12.44c3.08,2.29,13.92,10.63,16.16,12.38
		c1.12,0.96,4.25,3.35,6.91,5.42c5.58,4.3,11.64,9.03,12.65,9.83c1.22,1.06,0.64,3.14-1.75,6.06c-1.33,1.65-2.39,3.08-2.39,3.24
		s-1.12,1.86-2.5,3.72c-1.43,1.91-3.61,5-4.94,6.91c-4.73,6.91-7.49,10.36-8.29,10.36c-0.69,0-17.33-12.22-19.29-14.24
		c-0.43-0.37-1.38-1.12-2.13-1.59c-1.59-1.01-9.73-7.07-10.15-7.55c-0.27-0.32-7.97-6.11-9.88-7.44c-2.6-1.81-10.1-7.65-10.63-8.29
		c-0.32-0.43-0.74-0.74-0.96-0.74c-0.53,0-10.52-7.6-11.43-8.66c-1.22-1.54-1.75-1.01-1.59,1.59c0.05,1.43,0.11,10.63,0.05,20.46
		c-0.11,15.47-0.21,18.02-0.96,18.71c-0.69,0.74-3.19,0.85-19.13,0.85h-18.28l-0.58-1.49c-0.43-1.01-0.53-22.75-0.32-73.98
		c0.27-69.41,0.32-72.54,1.28-73.23c0.74-0.53,4.57-0.64,18.87-0.53c11.48,0.11,18.12,0.37,18.44,0.69
		c0.37,0.37,0.64,8.13,0.69,22.21c0.11,16.05,0.32,21.63,0.8,21.63c0.32,0,0.69-0.16,0.8-0.43c0.11-0.21,4.09-3.35,8.93-6.96
		c4.84-3.61,9.03-6.91,9.35-7.28c0.32-0.43,0.8-0.74,1.01-0.74c0.27,0,2.39-1.49,4.73-3.29c2.39-1.86,4.57-3.51,4.84-3.72
		c1.81-1.33,7.97-6.11,10.89-8.4c4.2-3.29,18.39-14.03,20.14-15.31c0.69-0.48,2.02-1.54,2.92-2.34
		C449.17,149.68,449.86,149.63,451.24,151.01L451.24,151.01z M170.53,155.21c2.07,0.05,3.03,0.32,3.88,1.17l1.12,1.12l-0.21,71.91
		c-0.16,65.74-0.21,72.06-1.01,72.86c-1.06,1.06-2.02,0.64-6.32-2.82c-1.59-1.28-13.07-9.89-25.51-19.13
		c-12.44-9.19-22.85-17.11-23.17-17.48c-0.32-0.43-0.85-0.74-1.12-0.74s-2.07-1.17-3.93-2.66c-1.86-1.43-4.25-3.24-5.26-3.99
		c-1.01-0.74-3.67-2.66-5.85-4.3c-2.18-1.59-7.17-5.26-11.05-8.18s-7.12-5.31-7.28-5.31c-0.11,0-0.21,14.3-0.27,31.73
		c0,27.26-0.16,31.89-0.8,32.95l-0.8,1.22H43.08l-0.27-1.22c-0.16-0.64-0.21-33.8-0.16-73.71l0.16-72.54l1.54-0.16
		c0.85-0.11,1.7,0.05,1.91,0.43c0.21,0.32,1.12,0.96,2.02,1.49c0.9,0.48,2.55,1.65,3.67,2.6c3.99,3.29,8.13,6.54,8.4,6.54
		c0.48,0,11.05,7.97,11.75,8.82c0.32,0.43,0.8,0.74,1.01,0.74c0.27,0,0.96,0.48,1.54,1.01c0.64,0.58,2.92,2.29,5.16,3.88
		c3.88,2.71,21.26,15.68,22.75,16.95c0.37,0.37,1.91,1.43,3.4,2.44c1.49,1.01,3.45,2.44,4.41,3.24c0.9,0.8,3.4,2.6,5.47,4.04
		c2.07,1.43,4.78,3.51,6.06,4.62c1.22,1.17,2.44,2.07,2.66,2.07s2.02,1.22,3.93,2.66c1.97,1.49,3.77,2.6,4.09,2.5
		c0.43-0.16,0.64-10.04,0.74-32.05c0.11-17.48,0.32-31.94,0.43-32.1C134.44,155.16,147.51,154.94,170.53,155.21L170.53,155.21z
		 M273.31,156.54c1.12,0.48,2.76,0.85,3.72,0.85s3.4,0.74,5.47,1.59c2.02,0.9,3.99,1.59,4.36,1.59s0.69,0.21,0.69,0.43
		c0,0.27,0.96,0.85,2.13,1.38c5.95,2.6,13.61,8.45,21.31,16.32c8.08,8.18,9.41,10.2,7.55,11.53c-1.7,1.22-6.75,4.41-7.87,4.94
		c-0.58,0.32-1.54,0.8-2.13,1.17c-4.41,2.71-5.47,3.35-6.38,3.99c-0.58,0.32-1.54,0.85-2.18,1.12c-1.17,0.53-5.85,3.4-9.35,5.74
		c-2.98,2.02-4.25,1.81-7.02-1.28c-1.75-1.97-3.72-3.29-7.33-5.1c-7.6-3.72-9.19-4.09-17.43-4.09c-6.38,0-7.6,0.16-10.52,1.28
		c-3.4,1.33-8.13,3.56-8.61,4.04c-0.16,0.16-1.28,1.06-2.55,2.07c-4.36,3.4-8.66,10.31-10.84,17.33c-1.28,4.2-1.33,12.6-0.05,16.42
		c2.34,7.23,4.15,10.63,8.4,15.62c1.54,1.81,6.59,5.58,9.03,6.7c1.17,0.58,2.71,1.33,3.45,1.65c3.24,1.65,12.38,2.6,16.63,1.81
		c1.38-0.27,3.51-0.69,4.78-0.9c1.22-0.27,2.71-0.69,3.3-1.01c5.63-2.92,5.95-3.14,11.11-8.4l3.72-3.72l-13.34-0.27
		c-7.33-0.16-13.55-0.48-13.82-0.69c-0.21-0.27-0.43-8.66-0.43-18.71c0-14.3,0.16-18.44,0.69-18.97c0.53-0.53,7.55-0.69,34.97-0.69
		h34.33l0.96,1.17c0.53,0.69,1.28,2.92,1.59,5.05c0.96,5.53,0.85,18.87-0.16,24.34c-0.48,2.5-0.96,5.21-1.06,6.11
		c-0.69,4.57-6.27,17.43-10.15,23.22c-5.1,7.65-6.11,8.88-10.95,13.61c-6.22,6.06-12.54,10.58-19.66,13.92
		c-1.33,0.58-3.03,1.43-3.83,1.86c-0.74,0.43-1.86,0.8-2.39,0.8c-0.53,0-1.22,0.21-1.49,0.48c-0.85,0.74-5.9,2.18-10.79,3.03
		c-8.5,1.54-21.79,0.8-30.13-1.59c-4.78-1.43-7.55-2.34-8.56-2.92c-0.58-0.27-2.34-1.12-3.93-1.86c-5.26-2.44-11.8-6.38-13.82-8.29
		c-0.48-0.43-2.23-2.02-3.93-3.45c-3.83-3.24-9.19-9.46-12.28-14.08c-4.25-6.48-8.13-15.2-9.99-22.59
		c-0.43-1.75-1.12-4.41-1.49-5.85c-1.12-4.57-1.28-19.93-0.27-25.19c1.17-5.9,2.34-10.52,3.3-12.7c0.43-0.96,0.74-1.97,0.74-2.29
		c0-1.75,6.22-13.82,8.34-16.16c0.53-0.58,1.65-2.07,2.44-3.24c2.66-3.93,13.02-14.03,15.52-15.15c0.58-0.27,1.7-0.9,2.44-1.43
		c4.57-2.98,7.87-4.89,8.5-4.89c0.37,0,1.06-0.32,1.49-0.74c1.22-1.01,10.42-4.04,12.33-4.04c0.9,0,2.13-0.27,2.76-0.64
		c2.02-1.06,7.17-1.43,17.11-1.22C268.9,155.69,271.82,155.95,273.31,156.54L273.31,156.54z M51.85,323.79
		c-6.16,1.7-9.25,5.16-9.73,10.95c-0.32,3.77,1.06,6.96,3.83,8.98c2.39,1.7,5.9,3.4,7.02,3.4c0.37,0,1.75,0.32,2.98,0.74
		c1.28,0.43,2.92,0.9,3.67,1.06c0.8,0.16,2.18,1.01,3.08,1.86c3.51,3.3,1.12,6.96-4.57,6.96c-2.92,0-5.21-1.33-6.01-3.51
		c-0.48-1.17-0.69-1.22-5.42-1.12l-4.94,0.11l0.16,1.86c0.05,1.01,0.48,2.18,0.9,2.66c0.43,0.48,0.8,1.12,0.8,1.43
		c0,0.8,3.51,3.51,6.11,4.73c1.75,0.85,3.3,1.01,8.77,0.96c6.48-0.05,6.7-0.11,9.62-1.81c1.97-1.12,3.56-2.6,4.62-4.3
		c1.49-2.23,1.7-2.98,1.7-6.32c0-7.39-2.76-9.94-14.35-13.02c-8.08-2.18-10.63-6.86-4.89-8.77c2.66-0.85,4.36-0.43,6.59,1.54
		c1.59,1.38,2.18,1.54,6.54,1.7l4.78,0.21l-0.16-1.54c-0.48-3.88-4.78-7.65-10.31-9.03C58.23,322.46,56.58,322.51,51.85,323.79
		L51.85,323.79z M402.88,324.21c-5.05,1.12-9.35,4.68-11.64,9.67c-3.4,7.33-3.35,16.26,0,23.12c2.02,4.04,3.51,5.53,7.76,7.6
		c2.92,1.43,3.83,1.65,7.87,1.65c4.78,0,6.27-0.48,9.62-2.98c2.18-1.65,2.82-1.59,3.24,0.32c0.16,0.96,0.64,1.59,1.17,1.65
		c0.48,0.05,1.54,0.16,2.39,0.27c3.19,0.37,3.24,0.27,3.24-11.05v-10.26l-7.87-0.16l-7.87-0.16l0.16,3.61l0.16,3.61l2.02,0.32
		c2.71,0.43,3.4,1.17,2.55,2.71c-1.01,1.91-4.41,3.61-7.28,3.61c-3.35,0-5.74-1.54-7.39-4.84c-2.71-5.31-1.28-16.42,2.5-19.24
		c3.35-2.5,9.09-1.43,11.11,2.02l1.12,1.91l4.89-0.16l4.84-0.16l-0.16-1.75c-0.27-3.4-4.41-8.4-8.56-10.26
		C414.09,324.05,406.28,323.47,402.88,324.21L402.88,324.21z M448.58,324.21c-3.83,0.74-6.96,2.76-8.77,5.63
		c-0.85,1.28-1.06,2.6-1.06,6.38c0,4.2,0.16,5,1.28,6.54c1.54,2.18,4.2,3.83,8.02,5c8.45,2.6,10.1,3.24,11.37,4.41
		c2.13,1.97,1.65,4.36-1.28,5.85c-2.98,1.54-6.64,0.74-9.03-1.91c-1.28-1.43-1.59-1.49-6.27-1.59c-2.71-0.05-5.1,0.05-5.26,0.27
		c-0.21,0.21,0.43,1.86,1.38,3.67c1.65,3.14,4.84,6.22,6.54,6.22c0.37,0,1.17,0.37,1.7,0.8c1.54,1.17,11.8,1.12,14.51-0.05
		c5.42-2.34,6.43-3.14,8.02-6.7c2.34-5.05,2.07-8.4-0.96-12.6c-1.7-2.29-3.93-3.51-9.57-5.05c-8.24-2.29-10.1-3.4-10.1-6.06
		c0-3.83,5.21-4.84,8.93-1.86c2.07,1.65,2.39,1.75,6.7,1.75c2.5,0,4.62-0.21,4.78-0.48c0.48-0.74-1.65-5.05-3.24-6.64
		c-2.76-2.76-5.26-3.67-10.79-3.83C452.73,323.89,449.59,324,448.58,324.21L448.58,324.21z M83.47,344.19v19.93l4.25,0.11
		c2.34,0.05,4.68,0.11,5.21,0.11c0.8,0.05,0.9-0.48,1.01-3.93c0-2.18,0.11-4.89,0.11-5.95c0.05-2.6,1.17-3.19,6.38-3.35
		c8.82-0.32,12.86-2.07,14.99-6.43c2.55-5.37,1.59-13.13-2.13-16.69c-3.45-3.24-5.69-3.72-18.49-3.72H83.47L83.47,344.19z
		 M101.97,332.29c5.05,1.22,6.54,5.85,3.08,9.3c-1.75,1.75-1.97,1.81-5.79,1.81c-2.6,0-4.15-0.21-4.52-0.69
		c-0.32-0.37-0.69-2.55-0.74-4.84c-0.16-3.77-0.05-4.2,1.12-5.16C96.55,331.55,98.41,331.44,101.97,332.29L101.97,332.29z
		 M131.46,325.17c-0.16,0.53-0.64,1.75-1.01,2.76c-0.43,0.96-0.74,2.13-0.74,2.55c0,0.43-0.32,1.54-0.69,2.44
		c-0.43,0.96-1.33,3.45-2.02,5.58c-0.69,2.18-1.43,4.04-1.65,4.2c-0.27,0.11-0.43,0.85-0.43,1.65s-0.37,2.13-0.8,2.98
		c-0.43,0.8-0.8,1.81-0.8,2.23c0,0.37-0.32,1.49-0.74,2.44c-1.06,2.66-1.97,5.26-2.5,7.6c-0.32,1.17-0.74,2.34-1.06,2.6
		c-0.27,0.32-0.48,0.9-0.48,1.38c0,0.69,0.85,0.8,5,0.85h5l0.32-1.49c0.16-0.8,0.64-2.07,1.12-2.71c0.74-1.17,1.33-1.33,6.43-1.59
		c6.64-0.43,8.4,0.16,8.98,2.92c0.21,0.96,0.58,2.02,0.85,2.34c0.43,0.48,10.58,1.06,10.58,0.64c0-0.11-0.48-1.49-1.12-3.08
		c-0.58-1.59-1.28-3.67-1.49-4.52c-0.21-0.9-0.69-2.13-1.01-2.76c-0.37-0.64-0.64-1.7-0.64-2.39s-0.21-1.49-0.48-1.81
		c-0.64-0.69-4.3-11.59-4.3-12.81c0-0.53-0.21-1.22-0.53-1.54c-0.27-0.27-1.12-2.44-1.81-4.84c-2.07-6.91-1.59-6.54-8.08-6.54
		C132.53,324.26,131.78,324.37,131.46,325.17L131.46,325.17z M139.01,337.66c0.74,2.87,2.07,7.23,2.71,9.09
		c1.7,4.73,0.8,5.79-4.68,5.58l-3.88-0.16l0.16-3.45c0.11-1.91,0.53-4.25,0.96-5.26c0.43-0.96,0.74-2.39,0.74-3.19
		C135.03,337.18,138.32,335.05,139.01,337.66L139.01,337.66z M163.67,324.64c0,0.27,0,9.25,0.05,20.09v19.66h10.36l0.16-6.59
		c0.05-4.04,0.37-6.86,0.74-7.33c0.48-0.58,1.54-0.69,4.89-0.37c3.77,0.32,4.46,0.53,5.69,1.81c1.22,1.33,1.43,2.07,1.7,6.59
		c0.16,2.76,0.43,5.31,0.64,5.63c0.16,0.32,2.44,0.53,5.42,0.53c4.62,0,5-0.11,4.68-0.96c-0.21-0.48-0.53-3.4-0.64-6.48
		c-0.27-6.11-1.12-8.34-3.61-9.46c-1.91-0.85-1.81-2.98,0.21-4.15c2.29-1.33,3.24-3.88,3.24-8.45c0-6.06-1.49-7.87-8.18-10.04
		c-2.07-0.69-5.1-0.85-13.98-0.85C168.83,324.26,163.72,324.42,163.67,324.64L163.67,324.64z M185.94,333.46
		c1.22,1.12,1.91,3.93,1.38,5.95c-0.48,2.02-4.09,3.45-8.45,3.45c-4.15,0-4.52-0.48-4.52-5.79c0-4.62,0.37-4.89,6.16-4.73
		C183.81,332.45,185.14,332.71,185.94,333.46L185.94,333.46z M204.91,324.9c-0.16,0.37-0.21,9.41-0.11,20.09l0.11,19.4l5.21,0.16
		l5.16,0.16v-5.63c0-5.9,0.48-7.6,2.6-9.51c1.43-1.33,3.51-0.8,4.25,1.12c0.32,0.85,1.38,2.92,2.44,4.68
		c1.01,1.75,2.13,3.67,2.39,4.25c2.71,5.16,2.5,5.05,9.35,5.05c3.35,0,6.06-0.16,6.06-0.43c0-0.21-0.85-1.65-1.86-3.24
		c-1.01-1.54-1.86-2.87-1.86-3.03c0-0.11-1.06-1.97-2.39-4.09c-1.33-2.18-2.39-4.09-2.39-4.25c0-0.16-1.01-1.81-2.29-3.67
		c-3.61-5.42-3.93-6.11-2.98-7.6c0.37-0.69,2.44-3.08,4.46-5.31c6.54-7.23,7.17-7.97,7.17-8.4c0-0.21-2.6-0.37-5.74-0.37h-5.79
		l-2.34,2.76c-1.28,1.49-3.24,3.83-4.36,5.1c-1.12,1.33-2.39,2.98-2.87,3.67c-0.58,0.9-1.22,1.22-2.23,1.12l-1.38-0.16l-0.16-6.27
		l-0.16-6.22h-5.05C206.61,324.26,205.07,324.48,204.91,324.9L204.91,324.9z M266.56,324.8c-0.21,0.37-0.37,9.41-0.37,20.14v19.45
		l5.37,0.16l5.31,0.16l0.16-6.27l0.16-6.27l5.85-0.27c11.85-0.58,16.21-4.3,16.21-13.82c0-7.17-2.5-10.84-8.61-12.6
		C286.81,324.42,267.14,323.84,266.56,324.8z M286.91,333.62c0.69,0.48,1.59,1.65,2.02,2.71c0.96,2.29,0.27,5.1-1.65,6.32
		c-1.65,1.06-7.71,1.59-9.25,0.8c-1.06-0.58-1.17-0.96-1.01-5.53c0.16-4.68,0.21-4.84,1.49-5.26
		C280.43,332.13,285.48,332.66,286.91,333.62L286.91,333.62z M308.12,324.58c-0.48,0.53-0.48,40.07,0.05,40.07
		c0.21,0,6.59,0.05,14.14,0.05l13.82,0.05l0.11-3.51c0.05-1.91-0.05-3.51-0.21-3.56c-0.21,0-3.93-0.11-8.24-0.21
		c-5.16-0.05-8.08-0.32-8.5-0.74c-0.43-0.43-0.69-5.31-0.9-16.42l-0.27-15.78l-4.78-0.16C310.67,324.32,308.33,324.37,308.12,324.58
		L308.12,324.58z M343.46,324.74c-0.58,0.37-0.69,3.29-0.53,15.52l0.16,15.09l1.65,3.19c2.82,5.58,7.33,7.71,16.32,7.71
		c5.63-0.05,6.16-0.16,9.35-1.75c4.36-2.18,6.48-5.05,7.39-9.94c0.64-3.51,1.12-28.91,0.53-29.5c-0.43-0.48-9.14-0.53-9.89-0.05
		c-0.48,0.27-0.64,3.93-0.64,13.23c0,7.12-0.27,13.71-0.53,14.83c-0.85,3.03-3.19,4.68-6.59,4.68c-2.98,0-5-1.06-6.32-3.35
		c-0.43-0.8-0.74-5.47-0.9-15.52l-0.27-14.35l-4.52-0.11C346.17,324.32,343.83,324.48,343.46,324.74L343.46,324.74z"/>
</g>
</svg>
