<?xml version="1.0" encoding="utf-8"?>
<!-- Generator: Adobe Illustrator 19.2.1, SVG Export Plug-In . SVG Version: 6.00 Build 0)  -->
<svg version="1.1" id="layer" xmlns="http://www.w3.org/2000/svg" xmlns:xlink="http://www.w3.org/1999/xlink" x="0px" y="0px"
	 viewBox="0 0 652 652" style="enable-background:new 0 0 652 652;" xml:space="preserve">
<style type="text/css">
	.st0{fill-rule:evenodd;clip-rule:evenodd;fill:#E3001E;}
</style>
<polygon class="st0" points="387.5,231.8 446.7,231.8 448,277.4 389,277.4 "/>
<polygon class="st0" points="466.3,277.4 557,277.4 555.7,231.8 483.1,231.8 "/>
<polygon class="st0" points="570.5,277.4 622.6,277.4 639.2,231.8 587.1,231.8 "/>
<polygon class="st0" points="500.4,316.2 607.9,316.2 569.5,422.3 502.9,422.3 "/>
<polygon class="st0" points="390,316.2 496.8,316.2 457.9,422.3 393,422.3 "/>
<polygon class="st0" points="195.3,316.2 254.6,316.2 215.7,422.3 156.2,422.3 "/>
<polygon class="st0" points="25.6,422.3 91,422.3 129.9,316.2 64.5,316.2 "/>
<polygon class="st0" points="15.5,277.4 197.9,277.4 215,231.8 33.1,231.8 "/>
<g>
	<path class="st0" d="M209.9,278.1l16.8-45.6h108.8c24.8,0,45.7,26.3,46.1,51c0.5,31.7-16.4,59.2-38.7,70.1l34.7,67.6h-64.4
		L258.9,316h45.3c10.4-1,15.9-12.1,15.9-20.1c0-6.9,0.2-16.8-14.1-17.8H209.9z"/>
</g>
</svg>
