<?xml version="1.0" encoding="UTF-8" standalone="no"?><svg xmlns:svg="http://www.w3.org/2000/svg" xmlns="http://www.w3.org/2000/svg" version="1.0" width="522" height="118"><path d="M 1,59 L 1,1 L 69,1 L 137,1 L 137,59 L 137,117 L 121,117 L 105,117 L 105,75 L 105,33 L 95,33 L 85,33 L 85,75 L 85,117 L 69,117 L 53,117 L 53,75 L 53,33 L 43,33 L 33,33 L 33,75 L 33,117 L 17,117 L 1,117 L 1,59 z M 153,59 L 153,1 L 197,1 L 241,1 L 241,59 L 241,117 L 225,117 L 209,117 L 209,101 L 209,85 L 197,85 L 185,85 L 185,101 L 185,117 L 169,117 L 153,117 L 153,59 z M 209,45 L 209,33 L 197,33 L 185,33 L 185,45 L 185,57 L 197,57 L 209,57 L 209,45 z M 257,59 L 257,1 L 273,1 L 289,1 L 289,23 L 289,45 L 303,45 L 317,45 L 317,23 L 317,1 L 333,1 L 349,1 L 349,59 L 349,117 L 333,117 L 317,117 L 317,95 L 317,73 L 303,73 L 289,73 L 289,95 L 289,117 L 273,117 L 257,117 L 257,59 z M 365,59 L 365,1 L 381,1 L 397,1 L 397,45 L 397,89 L 415,89 L 433,89 L 433,103 L 433,117 L 399,117 L 365,117 L 365,59 z M 449,59 L 449,1 L 485,1 L 521,1 L 521,15 L 521,29 L 501,29 L 481,29 L 481,37 L 481,45 L 501,45 L 521,45 L 521,59 L 521,73 L 501,73 L 481,73 L 481,81 L 481,89 L 501,89 L 521,89 L 521,103 L 521,117 L 485,117 L 449,117 L 449,59 z" style="fill:#1e2a63" /></svg>
