<?xml version="1.0" encoding="UTF-8" standalone="no"?>
<svg
   xmlns:dc="http://purl.org/dc/elements/1.1/"
   xmlns:cc="http://creativecommons.org/ns#"
   xmlns:rdf="http://www.w3.org/1999/02/22-rdf-syntax-ns#"
   xmlns:svg="http://www.w3.org/2000/svg"
   xmlns="http://www.w3.org/2000/svg"
   xmlns:sodipodi="http://sodipodi.sourceforge.net/DTD/sodipodi-0.dtd"
   xmlns:inkscape="http://www.inkscape.org/namespaces/inkscape"
   version="1.1"
   id="svg2"
   xml:space="preserve"
   width="257.33334"
   height="257.33334"
   viewBox="0 0 257.33334 257.33334"
   sodipodi:docname="sachs-seeklogo.com.eps"><metadata
     id="metadata8"><rdf:RDF><cc:Work
         rdf:about=""><dc:format>image/svg+xml</dc:format><dc:type
           rdf:resource="http://purl.org/dc/dcmitype/StillImage" /></cc:Work></rdf:RDF></metadata><defs
     id="defs6" /><sodipodi:namedview
     pagecolor="#ffffff"
     bordercolor="#666666"
     borderopacity="1"
     objecttolerance="10"
     gridtolerance="10"
     guidetolerance="10"
     inkscape:pageopacity="0"
     inkscape:pageshadow="2"
     inkscape:window-width="640"
     inkscape:window-height="480"
     id="namedview4" /><g
     id="g10"
     inkscape:groupmode="layer"
     inkscape:label="ink_ext_XXXXXX"
     transform="matrix(1.3333333,0,0,-1.3333333,0,257.33333)"><g
       id="g12"
       transform="scale(0.1)"><path
         d="M 0,1927.56 H 1927.56 V 0 H 0 v 1927.56"
         style="fill:#ffffff;fill-opacity:1;fill-rule:evenodd;stroke:none"
         id="path14" /><path
         d="m 387.504,929.344 c 0,32.621 -26.445,59.062 -59.074,59.062 -32.617,0 -59.059,-26.441 -59.059,-59.062 0,-32.633 26.442,-59.071 59.059,-59.071 32.629,0 59.074,26.438 59.074,59.071"
         style="fill:#4374c1;fill-opacity:1;fill-rule:evenodd;stroke:none"
         id="path16" /><path
         d="m 405.301,969.816 c 18.879,-19.718 29.472,-41.39 29.472,-64.128 0,-65.375 -86.718,-121.899 -212.578,-148.747 -8.132,-1.742 -7.832,-4.726 0,-4.527 157.879,3.961 289.703,47.348 336.293,106.25 10.106,12.77 6.539,26.856 -0.554,35.68 -26.399,32.836 -79.286,60.789 -148.387,79.711 -3.883,1.066 -6.629,-1.762 -4.246,-4.239"
         style="fill:#4374c1;fill-opacity:1;fill-rule:evenodd;stroke:none"
         id="path18" /><path
         d="m 247.375,884.773 c 3.875,-1.054 6.617,1.762 4.238,4.247 -18.879,19.718 -29.468,41.382 -29.468,64.128 0,65.382 86.714,121.902 212.574,148.752 8.133,1.73 7.836,4.73 0,4.52 C 276.836,1102.45 145.016,1059.07 98.4258,1000.18 88.3203,987.402 91.8867,973.309 98.9805,964.484 125.379,931.66 178.266,903.703 247.375,884.773"
         style="fill:#4374c1;fill-opacity:1;fill-rule:evenodd;stroke:none"
         id="path20" /><path
         d="m 1137.46,871.66 -78.01,138.46 h -49.09 L 932.344,871.66 h -0.067 l -17.773,-31.523 h 54.898 l 12.657,24.789 h 105.711 l 12.66,-24.789 h 54.87 l -17.77,31.523 z m -102.55,96.844 38.4,-75.25 h -76.806 z"
         style="fill:#4374c1;fill-opacity:1;fill-rule:evenodd;stroke:none"
         id="path22" /><path
         d="m 1548.5,941.008 h -106.26 v 69.112 h -49.08 V 840.137 h 49.08 v 68.965 h 106.26 v -68.965 h 49.08 v 169.983 h -49.08 v -69.112"
         style="fill:#4374c1;fill-opacity:1;fill-rule:evenodd;stroke:none"
         id="path24" /><path
         d="m 1842.52,887.77 c 0,25.863 -24,37.582 -63.75,48.82 -35.66,10.875 -76.1,17.894 -92.1,25.746 -12.63,6.125 -13.06,24.621 38.81,24.621 20.03,0 53.3,-3.355 53.3,-17.727 h 56.65 c 0,33.22 -52.74,46.07 -110.64,46.07 -43.93,0 -101.99,-11.64 -101.99,-47.956 0,-40.914 117.73,-52.961 148.85,-66.672 11.66,-4.93 9.78,-20.668 -11.95,-29.02 h -0.26 c -8.33,-3.164 -19.54,-5.242 -33.98,-5.242 -9.62,0 -23.46,1.567 -34.53,5.25 h -0.29 c -10.08,3.41 -17.79,8.598 -17.79,15.992 h -56.87 c 0,-6.058 1.64,-11.406 4.55,-16.113 h 0.08 c 17.13,-27.387 77.48,-33.301 108.43,-33.301 59.73,0 95.88,14.075 108.44,33.313 h 0.09 c 3.3,5.101 4.95,10.566 4.95,16.219"
         style="fill:#4374c1;fill-opacity:1;fill-rule:evenodd;stroke:none"
         id="path26" /><path
         d="m 914.566,887.77 c 0,25.863 -23.988,37.582 -63.757,48.82 -35.649,10.875 -76.09,17.894 -92.098,25.746 -12.637,6.125 -13.059,24.621 38.82,24.621 20.039,0 53.289,-3.355 53.289,-17.727 h 56.649 c 0,33.22 -52.731,46.07 -110.633,46.07 -43.93,0 -101.992,-11.64 -101.992,-47.956 0,-40.914 117.73,-52.961 148.855,-66.672 11.656,-4.93 9.778,-20.668 -11.961,-29.02 h -0.25 c -8.34,-3.164 -19.543,-5.242 -33.98,-5.242 -9.625,0 -23.453,1.567 -34.528,5.25 h -0.289 c -10.086,3.41 -17.796,8.598 -17.796,15.992 H 688.02 c 0,-6.058 1.64,-11.406 4.554,-16.113 h 0.086 c 17.125,-27.387 77.481,-33.301 108.434,-33.301 59.722,0 95.863,14.075 108.437,33.313 h 0.082 c 3.297,5.101 4.953,10.566 4.953,16.219"
         style="fill:#4374c1;fill-opacity:1;fill-rule:evenodd;stroke:none"
         id="path28" /><path
         d="m 1260.59,986.668 c 39.93,0 55.45,-15.52 55.45,-24.02 h 54.44 c 0,11 -19.02,52.652 -109.89,52.652 -84.88,0 -116.77,-46.3 -116.78,-88.605 0,-19.117 6.52,-39.05 21.5,-55.156 h 0.11 c 18.17,-19.457 48.74,-33.301 95.17,-33.301 59.57,0 88.26,17.895 100.96,33.313 h 0.09 c 6.59,8.058 8.82,15.429 8.82,19.207 h -54.42 c 0,-5.461 -6.43,-13.805 -21.57,-19.086 h -0.32 c -8.41,-2.883 -19.46,-4.817 -33.56,-4.817 -9.69,0 -18.65,1.688 -26.61,4.805 h -0.29 c -22.56,8.942 -36.98,29.344 -36.98,55.035 0,34.852 26.51,59.973 63.88,59.973"
         style="fill:#4374c1;fill-opacity:1;fill-rule:evenodd;stroke:none"
         id="path30" /></g></g></svg>
